<svg width="1601" height="1600" viewBox="0 0 1601 1600" fill="none" xmlns="http://www.w3.org/2000/svg">
<path d="M1408.9 0.000976562H0.000879643V850.101C0.000879643 850.101 542.766 330.413 533.338 671.458C526.252 927.774 -0.475962 1029.87 0.000879643 1214.81C0.407975 1372.7 0.000879643 1481.48 0.000879643 1481.48V1600H1469.43H1600.02C1600.02 1600 1600.02 1382.02 1600.02 933.333C1600.02 617.918 962.974 1214.81 962.974 933.333C962.974 831.467 1046.26 780.654 1141.14 740.74C1469.43 602.635 1600.02 740.74 1600.02 740.74C1600.02 740.74 1600.01 678.073 1600.02 361.812C1600.02 -331.821 587.648 1125.92 587.648 1125.92H1469.43V1214.81H378.707C378.707 1214.81 1408.9 86.9655 1408.9 0.000976562Z" fill="#FF0000"/>
</svg>
